<mxfile host="app.diagrams.net" agent="Mozilla/5.0 (Windows NT 10.0; Win64; x64) AppleWebKit/537.36 (KHTML, like Gecko) Chrome/126.0.0.0 YaBrowser/24.7.0.0 Safari/537.36" version="24.8.0">
  <diagram name="Page-1" id="XjrAujGlBELEXjBKYAO4">
    <mxGraphModel dx="2251" dy="759" grid="1" gridSize="10" guides="1" tooltips="1" connect="1" arrows="1" fold="1" page="1" pageScale="1" pageWidth="827" pageHeight="1169" math="0" shadow="0">
      <root>
        <mxCell id="0" />
        <mxCell id="1" parent="0" />
        <mxCell id="SGlSXyu4-abbOgjmm8Uz-1" value="Пользователь" style="rounded=0;whiteSpace=wrap;html=1;" vertex="1" parent="1">
          <mxGeometry x="40" y="330" width="120" height="60" as="geometry" />
        </mxCell>
        <mxCell id="SGlSXyu4-abbOgjmm8Uz-2" value="Учётная запись" style="rounded=1;whiteSpace=wrap;html=1;" vertex="1" parent="1">
          <mxGeometry x="40" y="210" width="120" height="60" as="geometry" />
        </mxCell>
        <mxCell id="SGlSXyu4-abbOgjmm8Uz-4" value="" style="endArrow=ERmandOne;html=1;rounded=0;exitX=0.5;exitY=0;exitDx=0;exitDy=0;startArrow=ERmandOne;startFill=0;endFill=0;entryX=0.5;entryY=1;entryDx=0;entryDy=0;" edge="1" parent="1" source="SGlSXyu4-abbOgjmm8Uz-1" target="SGlSXyu4-abbOgjmm8Uz-2">
          <mxGeometry relative="1" as="geometry">
            <mxPoint x="30" y="300" as="sourcePoint" />
            <mxPoint x="100" y="290" as="targetPoint" />
          </mxGeometry>
        </mxCell>
        <mxCell id="SGlSXyu4-abbOgjmm8Uz-7" value="Сессия" style="rounded=1;whiteSpace=wrap;html=1;" vertex="1" parent="1">
          <mxGeometry x="40" y="440" width="120" height="60" as="geometry" />
        </mxCell>
        <mxCell id="SGlSXyu4-abbOgjmm8Uz-8" value="Счёт" style="rounded=1;whiteSpace=wrap;html=1;" vertex="1" parent="1">
          <mxGeometry x="240" y="390" width="120" height="60" as="geometry" />
        </mxCell>
        <mxCell id="SGlSXyu4-abbOgjmm8Uz-9" value="Оповещение пользователя" style="rounded=1;whiteSpace=wrap;html=1;" vertex="1" parent="1">
          <mxGeometry x="360" y="270" width="120" height="60" as="geometry" />
        </mxCell>
        <mxCell id="SGlSXyu4-abbOgjmm8Uz-10" value="" style="endArrow=ERmandOne;html=1;rounded=0;startArrow=ERzeroToMany;startFill=0;endFill=0;entryX=0.5;entryY=1;entryDx=0;entryDy=0;" edge="1" parent="1">
          <mxGeometry relative="1" as="geometry">
            <mxPoint x="100" y="440" as="sourcePoint" />
            <mxPoint x="99.66" y="390" as="targetPoint" />
          </mxGeometry>
        </mxCell>
        <mxCell id="SGlSXyu4-abbOgjmm8Uz-11" value="" style="endArrow=ERmandOne;html=1;rounded=0;exitX=0;exitY=0.5;exitDx=0;exitDy=0;startArrow=ERoneToMany;startFill=0;endFill=0;" edge="1" parent="1" source="SGlSXyu4-abbOgjmm8Uz-8">
          <mxGeometry relative="1" as="geometry">
            <mxPoint x="240" y="420" as="sourcePoint" />
            <mxPoint x="161" y="380" as="targetPoint" />
            <Array as="points">
              <mxPoint x="220" y="420" />
              <mxPoint x="200" y="420" />
              <mxPoint x="200" y="380" />
            </Array>
          </mxGeometry>
        </mxCell>
        <mxCell id="SGlSXyu4-abbOgjmm8Uz-12" value="Действие в системе" style="rounded=1;whiteSpace=wrap;html=1;" vertex="1" parent="1">
          <mxGeometry x="-80" y="560" width="120" height="60" as="geometry" />
        </mxCell>
        <mxCell id="SGlSXyu4-abbOgjmm8Uz-13" value="" style="endArrow=ERmandOne;html=1;rounded=0;exitX=0.5;exitY=0;exitDx=0;exitDy=0;startArrow=ERzeroToMany;startFill=0;endFill=0;entryX=0.396;entryY=0.996;entryDx=0;entryDy=0;entryPerimeter=0;" edge="1" parent="1" target="SGlSXyu4-abbOgjmm8Uz-7">
          <mxGeometry relative="1" as="geometry">
            <mxPoint x="-10.000000000000004" y="559.22" as="sourcePoint" />
            <mxPoint x="88.25999999999985" y="510" as="targetPoint" />
            <Array as="points">
              <mxPoint x="-9.66" y="529.22" />
              <mxPoint x="88.34" y="529.22" />
            </Array>
          </mxGeometry>
        </mxCell>
        <mxCell id="SGlSXyu4-abbOgjmm8Uz-14" value="Услуга" style="rounded=1;whiteSpace=wrap;html=1;" vertex="1" parent="1">
          <mxGeometry x="-240" y="560" width="120" height="60" as="geometry" />
        </mxCell>
        <mxCell id="SGlSXyu4-abbOgjmm8Uz-16" value="" style="endArrow=ERmandOne;html=1;rounded=0;exitX=0;exitY=0.5;exitDx=0;exitDy=0;startArrow=ERzeroToMany;startFill=0;endFill=0;entryX=1;entryY=0.5;entryDx=0;entryDy=0;" edge="1" parent="1" source="SGlSXyu4-abbOgjmm8Uz-12" target="SGlSXyu4-abbOgjmm8Uz-14">
          <mxGeometry relative="1" as="geometry">
            <mxPoint x="-50.00000000000003" y="490" as="sourcePoint" />
            <mxPoint x="-50.00000000000003" y="430" as="targetPoint" />
          </mxGeometry>
        </mxCell>
        <mxCell id="SGlSXyu4-abbOgjmm8Uz-17" value="Менеджер" style="rounded=0;whiteSpace=wrap;html=1;" vertex="1" parent="1">
          <mxGeometry x="-80" y="680" width="120" height="60" as="geometry" />
        </mxCell>
        <mxCell id="SGlSXyu4-abbOgjmm8Uz-18" value="" style="endArrow=ERzeroToMany;html=1;rounded=0;exitX=0.5;exitY=0;exitDx=0;exitDy=0;startArrow=ERmandOne;startFill=0;endFill=0;entryX=0.5;entryY=1;entryDx=0;entryDy=0;" edge="1" parent="1">
          <mxGeometry relative="1" as="geometry">
            <mxPoint x="-20.340000000000003" y="680" as="sourcePoint" />
            <mxPoint x="-20.340000000000003" y="620" as="targetPoint" />
          </mxGeometry>
        </mxCell>
        <mxCell id="SGlSXyu4-abbOgjmm8Uz-19" value="Журнал подозрительных транзакций" style="rounded=1;whiteSpace=wrap;html=1;" vertex="1" parent="1">
          <mxGeometry x="90" y="560" width="120" height="60" as="geometry" />
        </mxCell>
        <mxCell id="SGlSXyu4-abbOgjmm8Uz-20" value="" style="endArrow=ERzeroToMany;html=1;rounded=0;exitX=0;exitY=0.5;exitDx=0;exitDy=0;startArrow=ERzeroToOne;startFill=0;endFill=0;entryX=1;entryY=0.5;entryDx=0;entryDy=0;" edge="1" parent="1" source="SGlSXyu4-abbOgjmm8Uz-19">
          <mxGeometry relative="1" as="geometry">
            <mxPoint x="80" y="589.66" as="sourcePoint" />
            <mxPoint x="40" y="589.66" as="targetPoint" />
          </mxGeometry>
        </mxCell>
        <mxCell id="SGlSXyu4-abbOgjmm8Uz-21" value="Транзакция" style="rounded=1;whiteSpace=wrap;html=1;" vertex="1" parent="1">
          <mxGeometry x="240" y="500" width="120" height="60" as="geometry" />
        </mxCell>
        <mxCell id="SGlSXyu4-abbOgjmm8Uz-22" value="" style="endArrow=ERzeroToMany;html=1;rounded=0;exitX=0.985;exitY=0.352;exitDx=0;exitDy=0;startArrow=ERzeroToOne;startFill=0;endFill=0;entryX=0.25;entryY=1;entryDx=0;entryDy=0;exitPerimeter=0;" edge="1" parent="1" source="SGlSXyu4-abbOgjmm8Uz-19" target="SGlSXyu4-abbOgjmm8Uz-21">
          <mxGeometry relative="1" as="geometry">
            <mxPoint x="310" y="610.34" as="sourcePoint" />
            <mxPoint x="260" y="610" as="targetPoint" />
            <Array as="points">
              <mxPoint x="270" y="580" />
            </Array>
          </mxGeometry>
        </mxCell>
        <mxCell id="SGlSXyu4-abbOgjmm8Uz-23" value="" style="endArrow=ERmandOne;html=1;rounded=0;startArrow=ERzeroToMany;startFill=0;endFill=0;" edge="1" parent="1" source="SGlSXyu4-abbOgjmm8Uz-21">
          <mxGeometry relative="1" as="geometry">
            <mxPoint x="237" y="530" as="sourcePoint" />
            <mxPoint x="160" y="470" as="targetPoint" />
            <Array as="points">
              <mxPoint x="200" y="530" />
              <mxPoint x="200" y="470" />
            </Array>
          </mxGeometry>
        </mxCell>
        <mxCell id="SGlSXyu4-abbOgjmm8Uz-24" value="" style="endArrow=ERmandOne;html=1;rounded=0;startArrow=ERzeroToMany;startFill=0;endFill=0;exitX=0.5;exitY=0;exitDx=0;exitDy=0;" edge="1" parent="1" source="SGlSXyu4-abbOgjmm8Uz-21">
          <mxGeometry relative="1" as="geometry">
            <mxPoint x="300" y="380" as="sourcePoint" />
            <mxPoint x="300" y="450" as="targetPoint" />
          </mxGeometry>
        </mxCell>
        <mxCell id="SGlSXyu4-abbOgjmm8Uz-25" value="" style="endArrow=ERzeroToMany;html=1;rounded=0;startArrow=ERmandOne;startFill=0;endFill=0;entryX=0.5;entryY=1;entryDx=0;entryDy=0;exitX=1;exitY=0.667;exitDx=0;exitDy=0;exitPerimeter=0;" edge="1" parent="1" source="SGlSXyu4-abbOgjmm8Uz-19" target="SGlSXyu4-abbOgjmm8Uz-9">
          <mxGeometry relative="1" as="geometry">
            <mxPoint x="230" y="600" as="sourcePoint" />
            <mxPoint x="420" y="570" as="targetPoint" />
            <Array as="points">
              <mxPoint x="420" y="600" />
            </Array>
          </mxGeometry>
        </mxCell>
        <mxCell id="SGlSXyu4-abbOgjmm8Uz-27" value="Сотрудник отдела безопасности" style="rounded=0;whiteSpace=wrap;html=1;" vertex="1" parent="1">
          <mxGeometry x="520" y="270" width="120" height="60" as="geometry" />
        </mxCell>
        <mxCell id="SGlSXyu4-abbOgjmm8Uz-28" value="" style="endArrow=ERzeroToMany;html=1;rounded=0;startArrow=ERmandOne;startFill=0;endFill=0;entryX=1;entryY=0.5;entryDx=0;entryDy=0;" edge="1" parent="1">
          <mxGeometry relative="1" as="geometry">
            <mxPoint x="520" y="300" as="sourcePoint" />
            <mxPoint x="480" y="299.5799999999999" as="targetPoint" />
          </mxGeometry>
        </mxCell>
        <mxCell id="SGlSXyu4-abbOgjmm8Uz-29" value="" style="endArrow=ERmandOne;html=1;rounded=0;exitX=0;exitY=0.5;exitDx=0;exitDy=0;startArrow=ERzeroToMany;startFill=0;endFill=0;" edge="1" parent="1" source="SGlSXyu4-abbOgjmm8Uz-9">
          <mxGeometry relative="1" as="geometry">
            <mxPoint x="240" y="380" as="sourcePoint" />
            <mxPoint x="161" y="340" as="targetPoint" />
            <Array as="points">
              <mxPoint x="220" y="300" />
              <mxPoint x="200" y="300" />
              <mxPoint x="200" y="340" />
            </Array>
          </mxGeometry>
        </mxCell>
      </root>
    </mxGraphModel>
  </diagram>
</mxfile>
